<?xml version="1.0" standalone="no"?>
<!DOCTYPE svg PUBLIC "-//W3C//DTD SVG 20010904//EN"
 "http://www.w3.org/TR/2001/REC-SVG-20010904/DTD/svg10.dtd">
<svg version="1.0" xmlns="http://www.w3.org/2000/svg"
 width="500.000000pt" height="500.000000pt" viewBox="0 0 500.000000 500.000000"
 preserveAspectRatio="xMidYMid meet">
<metadata>
Created by potrace 1.14, written by Peter Selinger 2001-2017
</metadata>
<g transform="translate(0.000000,500.000000) scale(0.100000,-0.100000)"
fill="#000000" stroke="none">
<path d="M2485 4217 c-51 -27 -176 -163 -210 -228 -20 -38 -38 -69 -41 -69 -2
0 -35 15 -72 34 -37 18 -106 48 -154 65 -103 36 -145 56 -150 73 -6 18 -28 -1
-28 -25 0 -12 -11 -44 -23 -72 -13 -27 -34 -85 -48 -127 -23 -73 -39 -93 -55
-67 -9 15 -116 63 -184 83 -30 8 -111 23 -179 32 -123 15 -163 28 -196 60 -15
15 -16 13 -11 -36 3 -37 -1 -70 -14 -109 -63 -185 -63 -389 1 -553 l19 -48
-36 0 c-50 0 -164 -27 -237 -57 -34 -14 -93 -33 -130 -42 l-68 -16 28 -40 c16
-22 47 -84 68 -137 21 -54 55 -123 76 -154 39 -59 121 -133 177 -160 37 -18
40 -10 -30 -86 -40 -44 -94 -146 -129 -244 -17 -49 -40 -99 -50 -110 l-20 -21
38 -6 c21 -4 72 -28 113 -53 82 -51 227 -124 246 -124 7 0 16 -4 19 -10 3 -6
-1 -7 -10 -4 -24 9 -99 -78 -140 -161 -44 -88 -66 -214 -64 -355 1 -67 -2
-114 -10 -128 -12 -23 -12 -23 26 -16 55 11 99 8 207 -11 132 -24 256 -17 356
19 41 15 82 29 90 32 13 4 15 -10 15 -88 1 -108 26 -239 62 -320 15 -34 23
-68 21 -83 -3 -14 -4 -25 -3 -25 1 0 22 11 46 24 24 13 103 41 174 61 72 21
151 48 176 61 66 33 138 93 186 155 70 91 135 284 149 443 15 172 24 204 25
90 0 -38 2 -80 5 -94 2 -14 9 -56 15 -95 13 -82 67 -237 103 -299 60 -102 193
-201 320 -237 112 -32 226 -68 239 -75 6 -4 23 -16 36 -28 l24 -21 -7 34 c-4
25 0 47 19 87 37 78 55 165 62 297 5 103 8 117 22 111 157 -64 292 -79 446
-49 103 20 183 22 214 6 24 -13 26 -6 11 35 -6 15 -11 75 -11 133 -1 159 -29
290 -78 371 -8 14 -35 49 -59 78 -32 38 -50 52 -63 49 -11 -3 -19 -2 -19 3 0
4 14 10 31 14 38 7 168 73 255 128 35 21 79 42 98 45 37 6 45 16 23 30 -15 9
-39 58 -57 118 -21 69 -88 188 -135 242 -25 28 -45 53 -45 56 0 3 20 17 44 31
104 61 182 165 245 329 16 42 41 91 55 108 14 17 26 34 26 39 0 5 -17 12 -37
16 -21 3 -96 26 -168 50 -71 24 -161 46 -198 50 -57 6 -67 9 -61 23 75 178 80
362 16 581 -18 62 -19 78 -7 144 l5 29 -26 -26 c-29 -29 -102 -57 -149 -57
-103 0 -315 -58 -387 -105 -21 -14 -42 -25 -47 -25 -6 0 -13 17 -17 38 -4 20
-9 42 -13 47 -3 6 -11 28 -17 50 -13 46 -56 168 -61 174 -2 3 -13 -5 -26 -17
-13 -12 -50 -31 -82 -42 -102 -35 -219 -84 -244 -102 -37 -28 -48 -22 -77 37
-27 59 -104 148 -183 214 -39 33 -50 37 -66 28z"/>
</g>
</svg>
